<svg width="28" height="28" viewBox="0 0 28 28" fill="none" xmlns="http://www.w3.org/2000/svg">
<path d="M14 0.666626C6.63996 0.666626 0.666626 6.63996 0.666626 14C0.666626 21.36 6.63996 27.3333 14 27.3333C21.36 27.3333 27.3333 21.36 27.3333 14C27.3333 6.63996 21.36 0.666626 14 0.666626ZM7.42663 22.3733C7.99996 21.1733 11.4933 20 14 20C16.5066 20 20.0133 21.1733 20.5733 22.3733C18.76 23.8133 16.48 24.6666 14 24.6666C11.52 24.6666 9.23996 23.8133 7.42663 22.3733ZM22.48 20.44C20.5733 18.12 15.9466 17.3333 14 17.3333C12.0533 17.3333 7.42663 18.12 5.51996 20.44C4.15996 18.6533 3.33329 16.4266 3.33329 14C3.33329 8.11996 8.11996 3.33329 14 3.33329C19.88 3.33329 24.6666 8.11996 24.6666 14C24.6666 16.4266 23.84 18.6533 22.48 20.44ZM14 5.99996C11.4133 5.99996 9.33329 8.07996 9.33329 10.6666C9.33329 13.2533 11.4133 15.3333 14 15.3333C16.5866 15.3333 18.6666 13.2533 18.6666 10.6666C18.6666 8.07996 16.5866 5.99996 14 5.99996ZM14 12.6666C12.8933 12.6666 12 11.7733 12 10.6666C12 9.55996 12.8933 8.66663 14 8.66663C15.1066 8.66663 16 9.55996 16 10.6666C16 11.7733 15.1066 12.6666 14 12.6666Z" fill="#494961"/>
</svg>
