<svg width="27" height="28" viewBox="0 0 27 28" fill="none" xmlns="http://www.w3.org/2000/svg">
<path d="M19.7334 15.3333C20.7334 15.3333 21.6134 14.7866 22.0667 13.96L26.84 5.30663C27.3334 4.42663 26.6934 3.33329 25.68 3.33329H5.94671L4.69337 0.666626H0.333374V3.33329H3.00004L7.80004 13.4533L6.00004 16.7066C5.02671 18.4933 6.30671 20.6666 8.33337 20.6666H24.3334V18H8.33337L9.80004 15.3333H19.7334ZM7.21337 5.99996H23.4134L19.7334 12.6666H10.3734L7.21337 5.99996ZM8.33337 22C6.86671 22 5.68004 23.2 5.68004 24.6666C5.68004 26.1333 6.86671 27.3333 8.33337 27.3333C9.80004 27.3333 11 26.1333 11 24.6666C11 23.2 9.80004 22 8.33337 22ZM21.6667 22C20.2 22 19.0134 23.2 19.0134 24.6666C19.0134 26.1333 20.2 27.3333 21.6667 27.3333C23.1334 27.3333 24.3334 26.1333 24.3334 24.6666C24.3334 23.2 23.1334 22 21.6667 22Z" fill="#494961"/>
</svg>
