<svg width="21" height="20" viewBox="0 0 21 20" fill="none" xmlns="http://www.w3.org/2000/svg">
<path d="M15.175 11C15.925 11 16.585 10.59 16.925 9.97L20.505 3.48C20.875 2.82 20.395 2 19.635 2H4.835L3.895 0H0.625V2H2.625L6.225 9.59L4.875 12.03C4.145 13.37 5.105 15 6.625 15H18.625V13H6.625L7.725 11H15.175ZM5.785 4H17.935L15.175 9H8.155L5.785 4ZM6.625 16C5.525 16 4.635 16.9 4.635 18C4.635 19.1 5.525 20 6.625 20C7.725 20 8.625 19.1 8.625 18C8.625 16.9 7.725 16 6.625 16ZM16.625 16C15.525 16 14.635 16.9 14.635 18C14.635 19.1 15.525 20 16.625 20C17.725 20 18.625 19.1 18.625 18C18.625 16.9 17.725 16 16.625 16Z" fill="white"/>
</svg>
